# xmcd
#
# Track frame offsets:
#	150
#	18243
#	31289
#	46276
#	57931
#	70902
#	92880
#	105573
#	123342
#	135806
#	145964
#	163998
#
# Disc length: 2329 seconds
#
# Revision: 0
# Processed by: cddbd v1.5.2PL0 Copyright (c) Steve Scherf et al.
# Submitted via: EasyCDDAExtractor 11.0.3.1
#
DISCID=9f09170c
DTITLE=Diamond Rio - The Star Still Shines
DYEAR=2007
DGENRE=Country
TTITLE0=The Star Still Shines
TTITLE1=Winter Wonderland
TTITLE2=The Christmas Song (Chestnuts Roasting On An Open Fire)
TTITLE3=Let It Snow, Let It Snow, Let It Snow
TTITLE4=O Come, O Come Emmanuel
TTITLE5=Sleigh Ride
TTITLE6=Christmas Time Is Here
TTITLE7=I'll Be Home For Christmas
TTITLE8=Christmas Times A Comin'
TTITLE9=Hark! The Herald Angels Sing
TTITLE10=Have Yourself A Merry Little Christmas
TTITLE11=Christmas Is Coming (From Charlie Brown Christmas)
EXTD=
EXTT0=
EXTT1=
EXTT2=
EXTT3=
EXTT4=
EXTT5=
EXTT6=
EXTT7=
EXTT8=
EXTT9=
EXTT10=
EXTT11=
PLAYORDER=
